<svg width="22" height="22" viewBox="0 0 22 22" fill="none" xmlns="http://www.w3.org/2000/svg">
<g clip-path="url(#clip0_186_301)">
<path fill-rule="evenodd" clip-rule="evenodd" d="M14.0149 2.08548L14.9213 0.436146C14.9381 0.395115 14.9393 0.349309 14.9245 0.307496C14.9096 0.265683 14.8799 0.2308 14.841 0.209523C14.8021 0.188246 14.7567 0.182069 14.7135 0.192175C14.6703 0.202281 14.6324 0.22796 14.6069 0.264297L13.6911 1.93039C12.8894 1.57767 12.0228 1.39636 11.1469 1.39808C10.2363 1.39808 9.37601 1.58774 8.60688 1.9283L7.68896 0.264297C7.67786 0.243472 7.66274 0.225058 7.64447 0.210126C7.6262 0.195194 7.60514 0.18404 7.58253 0.177313C7.55991 0.170587 7.53618 0.168421 7.51272 0.170941C7.48925 0.173461 7.46653 0.180618 7.44586 0.191995C7.42503 0.20309 7.40662 0.218213 7.39168 0.236484C7.37675 0.254755 7.3656 0.275811 7.35887 0.298428C7.35214 0.321046 7.34998 0.344775 7.3525 0.368236C7.35502 0.391698 7.36218 0.414425 7.37355 0.435098L8.281 2.08233C6.49964 2.99816 5.2946 4.74075 5.29565 6.74216L16.996 6.74111C16.996 4.7397 15.7952 3.0013 14.0149 2.08548ZM8.48428 4.63073C8.42002 4.63066 8.3564 4.61793 8.29706 4.59328C8.23771 4.56862 8.18381 4.53252 8.13841 4.48703C8.09302 4.44154 8.05703 4.38755 8.03251 4.32816C8.00798 4.26876 7.99539 4.20511 7.99546 4.14085C7.99553 4.07659 8.00825 4.01297 8.03291 3.95362C8.05756 3.89428 8.09367 3.84037 8.13915 3.79498C8.18464 3.74959 8.23863 3.7136 8.29803 3.68907C8.35742 3.66455 8.42107 3.65196 8.48533 3.65202C8.61525 3.65202 8.73986 3.70364 8.83172 3.79551C8.92359 3.88738 8.9752 4.01198 8.9752 4.1419C8.9752 4.27182 8.92359 4.39642 8.83172 4.48829C8.73986 4.58016 8.61525 4.63177 8.48533 4.63177M16.9562 7.19064L16.9583 15.5861C16.9583 16.0901 16.6838 16.526 16.2793 16.767C16.0662 16.8969 15.8216 16.9658 15.572 16.9661L14.6247 16.9672V19.832C14.6246 20.0245 14.5815 20.2146 14.4987 20.3884C14.4159 20.5622 14.2954 20.7154 14.146 20.8368C13.9966 20.9583 13.822 21.0449 13.6349 21.0904C13.4478 21.1359 13.253 21.1391 13.0645 21.0999C12.7725 21.0398 12.51 20.8811 12.3211 20.6505C12.1322 20.4198 12.0284 20.1312 12.0271 19.8331V16.9672H10.2719V19.8331C10.2714 20.1767 10.1344 20.506 9.89117 20.7486C9.64792 20.9913 9.31827 21.1274 8.97468 21.1272C8.63134 21.1266 8.30218 20.9902 8.05911 20.7477C7.81603 20.5052 7.67882 20.1764 7.67743 19.8331V16.9672H6.73331C6.18738 16.9672 5.72003 16.6528 5.49474 16.1959C5.39886 16.0072 5.34828 15.7988 5.34699 15.5871L5.3449 7.19379L16.9562 7.19064ZM3.54153 6.94964C4.25827 6.94964 4.84088 7.5291 4.84088 8.24269V13.6601C4.84088 13.7488 4.83215 13.8358 4.81468 13.921C4.77161 14.1287 4.67827 14.3227 4.54282 14.486C4.40737 14.6492 4.23396 14.7768 4.03778 14.8574C3.84159 14.9381 3.62861 14.9694 3.41751 14.9487C3.2064 14.9279 3.00361 14.8557 2.82689 14.7384C2.64757 14.6212 2.5003 14.4611 2.39839 14.2726C2.29648 14.0842 2.24316 13.8733 2.24324 13.6591L2.24219 8.24269C2.24219 7.53015 2.82375 6.94964 3.54153 6.94964ZM18.7564 6.94859C19.4732 6.94859 20.0558 7.52701 20.0558 8.24165V13.658C20.0558 14.3737 19.4742 14.9521 18.7575 14.9521C18.0397 14.9521 17.4581 14.3737 17.4581 13.658V8.2406C17.4581 7.52596 18.0387 6.94649 18.7554 6.94754M13.8106 3.65412C13.8766 3.65106 13.9427 3.66144 14.0047 3.68462C14.0666 3.70781 14.1233 3.74332 14.1711 3.78901C14.219 3.8347 14.2571 3.88963 14.2831 3.95046C14.3091 4.0113 14.3225 4.07678 14.3225 4.14295C14.3225 4.20912 14.3091 4.2746 14.2831 4.33543C14.2571 4.39627 14.219 4.45119 14.1711 4.49688C14.1233 4.54258 14.0666 4.57809 14.0047 4.60127C13.9427 4.62446 13.8766 4.63483 13.8106 4.63177C13.7445 4.63483 13.6784 4.62446 13.6164 4.60127C13.5545 4.57809 13.4978 4.54258 13.45 4.49688C13.4021 4.45119 13.364 4.39627 13.338 4.33543C13.312 4.2746 13.2986 4.20912 13.2986 4.14295C13.2986 4.07678 13.312 4.0113 13.338 3.95046C13.364 3.88963 13.4021 3.8347 13.45 3.78901C13.4978 3.74332 13.5545 3.70781 13.6164 3.68462C13.6784 3.66144 13.7445 3.65106 13.8106 3.65412Z" fill="black"/>
</g>
<defs>
<clipPath id="clip0_186_301">
<rect width="20.9572" height="20.9572" fill="white" transform="translate(0.669922 0.169922)"/>
</clipPath>
</defs>
</svg>
