<svg width="62" height="62" viewBox="0 0 62 62" fill="none" xmlns="http://www.w3.org/2000/svg">
<path d="M56.8327 14.2085V49.0835C56.8327 53.3641 45.2671 56.8335 30.9993 56.8335C16.7316 56.8335 5.16602 53.3641 5.16602 49.0835V14.2085" stroke="black" stroke-width="2.38462" stroke-linecap="round" stroke-linejoin="round"/>
<path d="M56.8327 37.4585C56.8327 41.7391 45.2671 45.2085 30.9993 45.2085C16.7316 45.2085 5.16602 41.7391 5.16602 37.4585M56.8327 25.8335C56.8327 30.1141 45.2671 33.5835 30.9993 33.5835C16.7316 33.5835 5.16602 30.1141 5.16602 25.8335" stroke="black" stroke-width="2.38462" stroke-linecap="round" stroke-linejoin="round"/>
<path d="M30.9993 20.6667C45.2667 20.6667 56.8327 17.197 56.8327 12.9167C56.8327 8.63654 45.2667 5.16675 30.9993 5.16675C16.732 5.16675 5.16602 8.63654 5.16602 12.9167C5.16602 17.197 16.732 20.6667 30.9993 20.6667Z" fill="black" stroke="black" stroke-width="2.38462" stroke-linecap="round" stroke-linejoin="round"/>
</svg>
