<svg width="47" height="47" viewBox="0 0 47 47" fill="none" xmlns="http://www.w3.org/2000/svg">
<path d="M18.3986 6.40013C18.1431 6.6617 18 7.01287 18 7.37854C18 7.74422 18.1431 8.09538 18.3986 8.35696L32.6735 23.001L18.3986 37.6421C18.1431 37.9037 18 38.2549 18 38.6205C18 38.9862 18.1431 39.3374 18.3986 39.599C18.5228 39.7265 18.6713 39.8279 18.8353 39.8971C18.9993 39.9664 19.1755 40.002 19.3536 40.002C19.5316 40.002 19.7078 39.9664 19.8718 39.8971C20.0359 39.8279 20.1844 39.7265 20.3086 39.599L35.4887 24.0234C35.7553 23.7498 35.9045 23.383 35.9045 23.001C35.9045 22.619 35.7553 22.2522 35.4887 21.9786L20.3086 6.40306C20.1844 6.2755 20.0359 6.17412 19.8718 6.10489C19.7078 6.03567 19.5316 6 19.3536 6C19.1755 6 18.9993 6.03567 18.8353 6.10489C18.6713 6.17412 18.5228 6.2755 18.3986 6.40306V6.40013Z" fill="#D9D9D9"/>
</svg>
