<svg width="47" height="47" viewBox="0 0 47 47" fill="none" xmlns="http://www.w3.org/2000/svg">
<path d="M31.2694 6.83421C31.5249 7.09579 31.668 7.44695 31.668 7.81263C31.668 8.1783 31.5249 8.52947 31.2694 8.79104L16.9944 23.4351L31.2694 38.0762C31.5249 38.3378 31.668 38.6889 31.668 39.0546C31.668 39.4203 31.5249 39.7715 31.2694 40.033C31.1452 40.1606 30.9967 40.262 30.8327 40.3312C30.6687 40.4004 30.4924 40.4361 30.3144 40.4361C30.1364 40.4361 29.9601 40.4004 29.7961 40.3312C29.6321 40.262 29.4836 40.1606 29.3594 40.033L14.1793 24.4574C13.9127 24.1839 13.7635 23.8171 13.7635 23.4351C13.7635 23.0531 13.9127 22.6863 14.1793 22.4127L29.3594 6.83714C29.4836 6.70958 29.6321 6.6082 29.7961 6.53897C29.9601 6.46975 30.1364 6.43408 30.3144 6.43408C30.4924 6.43408 30.6687 6.46975 30.8327 6.53897C30.9967 6.6082 31.1452 6.70958 31.2694 6.83714V6.83421Z" fill="#D9D9D9"/>
</svg>
