<svg width="22" height="22" viewBox="0 0 22 22" fill="none" xmlns="http://www.w3.org/2000/svg">
<path d="M15.5583 18.2186C14.7026 19.0481 13.7682 18.9171 12.8688 18.5242C11.917 18.1225 11.0438 18.105 10.0396 18.5242C8.78218 19.0656 8.11854 18.9084 7.36757 18.2186C3.10628 13.8263 3.73499 7.13745 8.57261 6.89295C9.75145 6.95408 10.5723 7.53913 11.2621 7.59153C12.2925 7.38196 13.2792 6.77944 14.3795 6.85803C15.698 6.96281 16.6935 7.48674 17.3484 8.42981C14.624 10.0627 15.2702 13.6516 17.7676 14.6558C17.2698 15.9657 16.6237 17.2668 15.5496 18.2273L15.5583 18.2186ZM11.1748 6.84056C11.0438 4.89329 12.6243 3.28657 14.4406 3.12939C14.6939 5.38229 12.3973 7.05887 11.1748 6.84056Z" fill="black"/>
</svg>
