<svg width="66" height="66" viewBox="0 0 66 66" fill="none" xmlns="http://www.w3.org/2000/svg">
<path d="M51.5625 61.875C49.7522 61.9763 47.9495 61.5716 46.3562 60.7063C44.7629 59.841 43.4419 58.5492 42.5412 56.9757C41.6405 55.4021 41.1957 53.6088 41.2565 51.7967C41.3173 49.9847 41.8814 48.2253 42.8856 46.7156L49.8321 36.003C50.0192 35.7144 50.2756 35.4772 50.5778 35.313C50.88 35.1488 51.2185 35.0628 51.5625 35.0628C51.9065 35.0628 52.245 35.1488 52.5472 35.313C52.8494 35.4772 53.1058 35.7144 53.2929 36.003L60.1301 46.5424C61.2228 48.1651 61.8282 50.0667 61.875 52.0224C61.8085 54.6947 60.686 57.2317 58.7533 59.0782C56.8205 60.9247 54.235 61.9304 51.5625 61.875ZM51.5625 40.9138L46.3898 48.8874C45.9671 49.6857 45.729 50.5686 45.6931 51.4711C45.6571 52.3735 45.8242 53.2726 46.1819 54.1019C46.5397 54.9312 47.0791 55.6697 47.7603 56.2628C48.4415 56.8559 49.2471 57.2885 50.1178 57.5288C50.9884 57.7691 51.9019 57.8108 52.7909 57.651C53.6798 57.4912 54.5216 57.1339 55.2541 56.6055C55.9865 56.077 56.5911 55.3909 57.023 54.5977C57.455 53.8045 57.7034 52.9244 57.75 52.0224C57.7058 50.8346 57.3159 49.6856 56.628 48.7163L51.5625 40.9138ZM22.6875 49.5H18.5625C18.5734 40.2042 22.271 31.2923 28.8441 24.7191C35.4173 18.146 44.3292 14.4484 53.625 14.4375H61.875V18.5625H53.625C45.4227 18.5718 37.559 21.8342 31.7591 27.6341C25.9592 33.434 22.6968 41.2977 22.6875 49.5Z" fill="black"/>
<path d="M33 49.5H28.875C28.8826 42.9382 31.4927 36.6474 36.1325 32.0075C40.7724 27.3677 47.0632 24.7576 53.625 24.75H61.875V28.875H53.625C48.1566 28.8805 42.9137 31.0552 39.047 34.922C35.1802 38.7887 33.0055 44.0316 33 49.5Z" fill="black"/>
<path d="M53.625 4.12502C44.8323 4.11756 36.2293 6.68125 28.875 11.5005C21.5207 6.68125 12.9177 4.11756 4.125 4.12502V8.25002C11.5802 8.24065 18.8972 10.2621 25.2904 14.0972C23.595 15.455 21.9994 16.9328 20.5157 18.5192C15.4664 15.8433 9.83955 14.4421 4.125 14.4375V18.5625C8.85884 18.5607 13.53 19.6452 17.7787 21.7326C16.4888 23.3933 15.3158 25.1417 14.2684 26.9651C11.0819 25.5179 7.62471 24.7629 4.125 24.75V28.875C6.96704 28.8789 9.77697 29.476 12.375 30.6281C9.65519 36.5477 8.24801 42.9855 8.25 49.5H12.375C12.3876 38.5637 16.7376 28.0789 24.4707 20.3457C32.2039 12.6126 42.6887 8.26257 53.625 8.25002H61.875V4.12502H53.625Z" fill="black"/>
</svg>
