<svg width="58" height="58" viewBox="0 0 58 58" fill="none" xmlns="http://www.w3.org/2000/svg">
<path d="M9.1299 8.83283C8.69248 9.70284 8.4774 10.7807 8.04723 12.9315L6.60206 20.1573C6.39725 21.1425 6.39566 22.1592 6.5974 23.145C6.79914 24.1309 7.19996 25.0652 7.77533 25.8908C8.35069 26.7163 9.08849 27.4158 9.94356 27.9463C10.7986 28.4768 11.753 28.8272 12.7482 28.9761C13.7434 29.125 14.7585 29.0692 15.7314 28.8121C16.7043 28.5551 17.6145 28.1021 18.4062 27.4811C19.198 26.86 19.8547 26.0839 20.3361 25.2003C20.8175 24.3166 21.1135 23.344 21.206 22.342L21.3751 20.6745C21.2836 21.735 21.4142 22.803 21.7587 23.8102C22.1033 24.8173 22.6541 25.7416 23.376 26.5238C24.098 27.3061 24.9752 27.9291 25.9515 28.3531C26.9279 28.7772 27.982 28.9929 29.0465 28.9864C30.1109 28.98 31.1623 28.7516 32.1335 28.3159C33.1047 27.8801 33.9743 27.2465 34.6868 26.4557C35.3993 25.6648 35.9389 24.734 36.2713 23.7227C36.6037 22.7115 36.7214 21.642 36.6171 20.5827L36.7935 22.342C36.8859 23.344 37.1819 24.3166 37.6633 25.2003C38.1448 26.0839 38.8014 26.86 39.5932 27.4811C40.385 28.1021 41.2952 28.5551 42.2681 28.8121C43.2409 29.0692 44.2561 29.125 45.2513 28.9761C46.2465 28.8272 47.2008 28.4768 48.0559 27.9463C48.911 27.4158 49.6488 26.7163 50.2241 25.8908C50.7995 25.0652 51.2003 24.1309 51.4021 23.145C51.6038 22.1592 51.6022 21.1425 51.3974 20.1573L49.9522 12.9315C49.5221 10.7807 49.307 9.70525 48.8696 8.83283C48.4138 7.92426 47.772 7.12168 46.986 6.47719C46.2 5.8327 45.2872 5.3607 44.3069 5.09184C43.3644 4.83325 42.2672 4.83325 40.0729 4.83325H17.9266C15.7322 4.83325 14.6351 4.83325 13.6926 5.09184C12.7123 5.3607 11.7995 5.8327 11.0135 6.47719C10.2274 7.12168 9.58567 7.92426 9.1299 8.83283ZM44.1498 32.6249C46.038 32.6297 47.8954 32.146 49.5414 31.2208V33.8333C49.5414 42.9465 49.5414 47.5043 46.7091 50.3342C44.4301 52.6156 41.0347 53.0578 35.0414 53.1448V44.7082C35.0414 42.4487 35.0414 41.3201 34.5556 40.4791C34.2375 39.9281 33.7799 39.4705 33.2289 39.1523C32.3879 38.6666 31.2593 38.6666 28.9997 38.6666C26.7401 38.6666 25.6116 38.6666 24.7706 39.1523C24.2195 39.4705 23.762 39.9281 23.4438 40.4791C22.9581 41.3201 22.9581 42.4487 22.9581 44.7082V53.1448C16.9647 53.0578 13.5693 52.6132 11.2904 50.3342C8.45806 47.5043 8.45806 42.9465 8.45806 33.8333V31.2208C10.1048 32.1464 11.963 32.6301 13.8521 32.6249C16.6449 32.6267 19.3337 31.5657 21.3727 29.6573C23.4504 31.572 26.1743 32.6319 28.9997 32.6249C31.8251 32.6319 34.5491 31.572 36.6267 29.6573C38.6658 31.5657 41.357 32.6267 44.1498 32.6249Z" fill="black"/>
</svg>
