<svg width="66" height="66" viewBox="0 0 66 66" fill="none" xmlns="http://www.w3.org/2000/svg">
<path d="M8.22852 31.8341C8.22852 27.3461 9.35052 23.1881 11.5725 19.3821C13.7945 15.5761 16.8085 12.5621 20.6145 10.3401C24.4205 8.11807 28.5565 7.01807 33.0225 7.01807C36.3665 7.01807 39.5785 7.67807 42.6365 8.97607C45.6945 10.2741 48.3125 12.0561 50.5345 14.2561C52.7565 16.4561 54.5165 19.0961 55.8145 22.1761C57.1125 25.2561 57.7725 28.4461 57.7725 31.8341C57.7725 35.1781 57.1125 38.3901 55.8145 41.4481C54.5165 44.5061 52.7345 47.1461 50.5345 49.3461C48.3345 51.5461 45.6945 53.3061 42.6365 54.6041C39.5785 55.9021 36.3885 56.5621 33.0225 56.5621C29.6565 56.5621 26.4225 55.9021 23.3645 54.6041C20.3065 53.3061 17.6665 51.5241 15.4445 49.3241C13.2225 47.1241 11.4845 44.4841 10.1645 41.4481C8.84452 38.4121 8.22852 35.2001 8.22852 31.8341ZM13.6845 31.8341C13.6845 37.0481 15.5765 41.5801 19.3825 45.4301C23.1885 49.2361 27.7205 51.1281 33.0225 51.1281C36.4985 51.1281 39.7325 50.2701 42.6805 48.5321C45.6285 46.7941 48.0045 44.4621 49.7425 41.4921C51.4805 38.5221 52.3605 35.3101 52.3605 31.8341C52.3605 28.3581 51.4805 25.1241 49.7425 22.1541C48.0045 19.1841 45.6505 16.8301 42.6805 15.0921C39.7105 13.3541 36.4985 12.4961 33.0225 12.4961C29.5465 12.4961 26.3125 13.3541 23.3645 15.0921C20.4165 16.8301 18.0405 19.1841 16.2805 22.1541C14.5205 25.1241 13.6845 28.3581 13.6845 31.8341ZM26.1585 41.1621C26.0893 40.9242 26.0693 40.6748 26.0995 40.429C26.1298 40.1831 26.2097 39.946 26.3345 39.7321L31.1085 31.2841V17.1821C31.1085 16.6761 31.2845 16.2361 31.6365 15.8841C31.9885 15.5321 32.4285 15.3561 32.9345 15.3561C33.4405 15.3561 33.8805 15.5321 34.2325 15.8841C34.5845 16.2361 34.7605 16.6761 34.7605 17.1821V31.8561C34.7605 32.2961 34.6285 32.6701 34.3425 33.0221L29.5465 41.6021C29.1945 42.1961 28.6445 42.5041 27.8965 42.5041C27.5445 42.5041 27.2585 42.4381 27.0165 42.3061C26.6075 42.0348 26.3044 41.6307 26.1585 41.1621Z" fill="black"/>
</svg>
