<svg width="58" height="58" viewBox="0 0 58 58" fill="none" xmlns="http://www.w3.org/2000/svg">
<g clip-path="url(#clip0_186_160)">
<path d="M3.26377 23.7438C9.13627 15.9138 18.4888 10.875 29.0013 10.875C39.5138 10.875 48.8663 15.9138 54.7388 23.7438C55.0272 24.1283 55.4566 24.3826 55.9324 24.4505C56.4083 24.5185 56.8917 24.3947 57.2763 24.1063C57.6608 23.8178 57.9151 23.3885 57.983 22.9126C58.051 22.4367 57.9272 21.9533 57.6388 21.5688C51.1138 12.8687 40.71 7.25 29.0013 7.25C17.2925 7.25 6.88877 12.8687 0.363767 21.5688C0.0978424 21.954 -0.00868307 22.4273 0.0665015 22.8894C0.141686 23.3515 0.392748 23.7665 0.767105 24.0476C1.14146 24.3288 1.61007 24.4541 2.07479 24.3975C2.5395 24.3408 2.9679 24.1066 3.26377 23.7438Z" fill="black"/>
<path d="M10.5138 30.9938C12.6634 28.1205 15.454 25.7887 18.6636 24.184C21.8731 22.5792 25.4129 21.7458 29.0013 21.75C36.5775 21.75 43.2838 25.375 47.4888 30.9938C47.6316 31.1842 47.8105 31.3446 48.0153 31.4659C48.2201 31.5871 48.4468 31.6669 48.6824 31.7005C48.9181 31.7342 49.158 31.7211 49.3886 31.662C49.6192 31.603 49.8358 31.4991 50.0263 31.3562C50.2167 31.2134 50.3771 31.0345 50.4984 30.8297C50.6196 30.6249 50.6994 30.3982 50.7331 30.1626C50.7667 29.9269 50.7536 29.687 50.6946 29.4564C50.6355 29.2258 50.5316 29.0092 50.3888 28.8187C45.5313 22.33 37.7375 18.125 29.0013 18.125C20.265 18.125 12.4713 22.33 7.61377 28.8187C7.34784 29.204 7.24132 29.6773 7.3165 30.1394C7.39169 30.6015 7.64275 31.0165 8.01711 31.2976C8.39146 31.5788 8.86007 31.7041 9.32479 31.6475C9.78951 31.5908 10.2143 31.3566 10.5101 30.9938H10.5138Z" fill="black"/>
<path d="M29 32.6249C24.3963 32.6249 20.3363 34.8289 17.7625 38.2437C17.4741 38.6283 17.0447 38.8825 16.5688 38.9505C16.093 39.0185 15.6096 38.8946 15.225 38.6062C14.8404 38.3178 14.5862 37.8884 14.5182 37.4125C14.4502 36.9366 14.5741 36.4532 14.8625 36.0687C16.5072 33.8719 18.6413 32.0887 21.0953 30.8604C23.5493 29.6322 26.2558 28.9927 29 28.9927C31.7442 28.9927 34.4507 29.6322 36.9047 30.8604C39.3587 32.0887 41.4928 33.8719 43.1375 36.0687C43.4034 36.454 43.51 36.9272 43.4348 37.3893C43.3596 37.8514 43.1085 38.2665 42.7342 38.5476C42.3598 38.8287 41.8912 38.9541 41.4265 38.8974C40.9618 38.8408 40.537 38.6065 40.2411 38.2437C38.9337 36.4981 37.2373 35.0813 35.2865 34.106C33.3358 33.1306 31.1846 32.6235 29.0036 32.6249H29ZM29 50.7499C29.9614 50.7499 30.8834 50.368 31.5633 49.6882C32.2431 49.0084 32.625 48.0863 32.625 47.1249C32.625 46.1635 32.2431 45.2415 31.5633 44.5617C30.8834 43.8819 29.9614 43.4999 29 43.4999C28.0386 43.4999 27.1166 43.8819 26.4367 44.5617C25.7569 45.2415 25.375 46.1635 25.375 47.1249C25.375 48.0863 25.7569 49.0084 26.4367 49.6882C27.1166 50.368 28.0386 50.7499 29 50.7499Z" fill="black"/>
</g>
<defs>
<clipPath id="clip0_186_160">
<rect width="58" height="58" fill="white"/>
</clipPath>
</defs>
</svg>
